<svg xmlns="http://www.w3.org/2000/svg" viewBox="0 0 100 108"><title>月</title><defs><linearGradient id="metal" x2="1" y2="1"><stop stop-color="#f5e5be"/><stop offset=".45" stop-color="#b2a0ce"/><stop offset="1" stop-color="#716348"/></linearGradient></defs><path d="M50 4 91 18v43c0 20-24 34-41 43C33 95 9 81 9 61V18Z" fill="#101722" stroke="url(#metal)" stroke-width="4"/><path d="M50 11 84 23v37c0 16-18 28-34 37-16-9-34-21-34-37V23Z" fill="none" stroke="#b2a0ce" stroke-opacity=".3" stroke-width="1"/><g fill="#19232d" stroke="#b2a0ce" stroke-width="4" stroke-linejoin="round" stroke-linecap="round"><path d="M64 22c-27-2-47 23-35 46 10 21 38 25 53 6-19 4-36-8-39-22-3-13 7-26 21-30Z"/><path d="m72 29 3 8 9 3-9 3-3 8-3-8-9-3 9-3Z"/></g></svg>